3.0Hz3min_grf.mot
version=1
nRows=10
nColumns 19
inDegrees=yes
endheader
time	1_ground_force_vx	1_ground_force_vy	1_ground_force_vz	1_ground_force_px	1_ground_force_py	1_ground_force_pz	1_ground_torque_x	1_ground_torque_y	1_ground_torque_z	2_ground_force_vx	2_ground_force_vy	2_ground_force_vz	2_ground_force_px	2_ground_force_py	2_ground_force_pz	2_ground_torque_x	2_ground_torque_y	2_ground_torque_z
            3.751500	           -0.050342	           12.802589	           -0.816268	           -0.210285	            0.005997	           -0.351629	            0.003514	           -0.893605	            0.056975	            0.521413	           -1.119934	            4.735577	           -0.232311	            0.006130	           -0.833667	            0.491700	           -0.951614	           -0.380618
            3.752000	           -0.049935	           12.441468	           -0.680246	           -0.199628	            0.006022	           -0.357010	            0.003346	           -0.833761	            0.045587	            0.481189	           -2.961419	            4.682098	           -0.232311	            0.006130	           -0.833667	            0.454290	           -0.989763	           -0.324187
            3.752500	           -0.096039	           12.622118	           -0.771071	           -0.208336	            0.006027	           -0.358560	            0.006631	           -0.871486	            0.053238	            0.291111	           -2.225335	            4.637878	           -0.232311	            0.006130	           -0.833667	            0.454291	           -0.998946	           -0.399621
            3.753000	            0.132916	           12.802822	           -0.862579	           -0.206786	            0.006072	           -0.368887	           -0.008826	           -0.850109	            0.057275	            0.528060	           -2.961417	            4.729006	           -0.232311	            0.006130	           -0.833667	            0.416805	           -1.018122	           -0.361972
            3.753500	            0.086863	           12.082340	           -1.003125	           -0.202159	            0.006063	           -0.366661	           -0.006478	           -0.901104	            0.074813	            0.523387	           -1.672211	            4.686678	           -0.232311	            0.006130	           -0.833667	            0.529407	           -0.989290	           -0.380769
            3.754000	            0.086977	           12.082143	           -0.957269	           -0.198890	            0.006030	           -0.358750	           -0.006638	           -0.922160	            0.073063	            0.759589	           -2.223476	            4.590751	           -0.232311	            0.006130	           -0.833667	            0.435445	           -0.970992	           -0.305261
            3.754500	            0.224488	           12.803036	           -0.908663	           -0.203958	            0.006062	           -0.366633	           -0.015450	           -0.881130	            0.062536	            0.804466	           -1.671029	            4.639630	           -0.232311	            0.006130	           -0.833667	            0.491760	           -0.970453	           -0.399536
            3.755000	            0.041116	           12.803000	           -0.908208	           -0.209220	            0.006045	           -0.362713	           -0.002969	           -0.924422	            0.065576	            0.244220	           -2.225169	            4.544042	           -0.232311	            0.006130	           -0.833667	            0.510425	           -0.932708	           -0.361709
            3.755500	           -0.004305	           12.982471	           -0.723897	           -0.202481	            0.005986	           -0.348807	            0.000284	           -0.856136	            0.047738	            0.619039	           -2.223983	            4.590810	           -0.232311	            0.006130	           -0.833667	            0.416593	           -0.970522	           -0.456055
            3.756000	            0.087447	           12.621957	           -0.725671	           -0.199823	            0.006045	           -0.362381	           -0.005750	           -0.829915	            0.047714	            0.476578	           -1.672715	            4.780554	           -0.232311	            0.006130	           -0.833667	            0.454112	           -0.951616	           -0.418303
